<?xml version="1.0" encoding="UTF-8" standalone="no"?>
<!-- Created with Inkscape (http://www.inkscape.org/) -->

<svg
   xmlns:dc="http://purl.org/dc/elements/1.1/"
   xmlns:cc="http://creativecommons.org/ns#"
   xmlns:rdf="http://www.w3.org/1999/02/22-rdf-syntax-ns#"
   xmlns:svg="http://www.w3.org/2000/svg"
   xmlns="http://www.w3.org/2000/svg"
   xmlns:sodipodi="http://sodipodi.sourceforge.net/DTD/sodipodi-0.dtd"
   xmlns:inkscape="http://www.inkscape.org/namespaces/inkscape"
   width="543.77576"
   height="120.3745"
   id="svg2"
   version="1.1"
   inkscape:version="0.48.3.1 r9886"
   sodipodi:docname="logo.svg">
  <defs
     id="defs4" />
  <sodipodi:namedview
     id="base"
     pagecolor="#ffffff"
     bordercolor="#666666"
     borderopacity="1.0"
     inkscape:pageopacity="0.0"
     inkscape:pageshadow="2"
     inkscape:zoom="3.1992187"
     inkscape:cx="120.90761"
     inkscape:cy="52.428611"
     inkscape:document-units="px"
     inkscape:current-layer="layer1"
     showgrid="false"
     fit-margin-top="0"
     fit-margin-left="0"
     fit-margin-right="0"
     fit-margin-bottom="0"
     inkscape:window-width="1366"
     inkscape:window-height="719"
     inkscape:window-x="0"
     inkscape:window-y="29"
     inkscape:window-maximized="1" />
  <metadata
     id="metadata7">
    <rdf:RDF>
      <cc:Work
         rdf:about="">
        <dc:format>image/svg+xml</dc:format>
        <dc:type
           rdf:resource="http://purl.org/dc/dcmitype/StillImage" />
      </cc:Work>
    </rdf:RDF>
  </metadata>
  <g
     inkscape:label="Layer 1"
     inkscape:groupmode="layer"
     id="layer1"
     transform="translate(-63.149756,-10.009503)">
    <g
       style="font-size:108.47143555px;font-style:oblique;font-variant:normal;font-weight:600;font-stretch:normal;line-height:125%;letter-spacing:0px;word-spacing:0px;fill:#000000;fill-opacity:1;stroke:none;font-family:URW Gothic L;-inkscape-font-specification:URW Gothic L Semi-Bold Oblique"
       id="text2985">
      <path
         d="m 63.366699,83.524354 c -0.108471,1.735541 -0.216943,3.145673 -0.216943,4.338858 0,5.315095 2.386375,11.064089 6.0744,14.426698 3.688026,3.36261 10.196322,5.53205 16.379187,5.53205 15.945287,0 30.588947,-14.426721 30.588947,-30.155063 0,-9.437006 -4.88123,-15.077534 -16.813074,-19.524859 -6.182866,-2.277898 -6.833702,-2.603315 -8.24383,-3.579557 -1.952483,-1.410127 -3.254143,-3.579559 -3.254143,-5.532043 0,-5.423567 4.447335,-9.870901 9.870901,-9.870901 2.928726,0 5.423576,1.193188 6.399816,3.145672 0.65083,1.301656 0.7593,1.952489 0.7593,5.3151 l 15.29447,0 c 0.32542,-2.060955 0.43389,-3.796502 0.43389,-5.098157 0,-10.087834 -8.67773,-17.680844 -20.28416,-17.680844 -14.535159,0 -27.660218,12.691172 -27.660218,26.683973 0,8.677706 4.121924,14.318233 13.125044,17.897787 10.196305,4.12191 10.738674,4.44733 12.79963,6.182871 1.518594,1.410128 2.386374,3.688032 2.386374,6.182872 0,6.50828 -5.857468,11.714915 -13.016575,11.714915 -5.74898,0 -9.220072,-2.928733 -9.220072,-7.701472 0,-0.650828 0,-1.410129 0.108471,-2.2779 l -15.511415,0"
         style="font-family:URW Gothic L;-inkscape-font-specification:URW Gothic L Semi-Bold Oblique"
         id="path3760"
         inkscape:connector-curvature="0" />
      <path
         d="m 116.35839,126.47904 14.4267,0 4.77274,-25.70773 c 4.44732,4.88121 9.76244,7.05065 17.13849,7.05065 20.06719,0 36.4464,-17.463927 36.4464,-38.724307 0,-6.291337 -1.41013,-10.738676 -4.77274,-15.186001 -4.77274,-6.182865 -11.17257,-9.003129 -20.06722,-9.003129 -8.02688,0 -16.05378,3.145677 -21.15193,8.460772 l 1.30166,-7.050643 -13.23352,0 -14.86058,80.160388 m 43.71398,-68.337002 c 4.23039,0 8.78619,1.952489 10.95562,4.772743 1.84401,2.38637 3.25414,6.833704 3.25414,9.979373 0,3.796496 -1.95249,9.220075 -4.44733,12.9081 -3.90496,5.423567 -10.19632,8.786187 -16.27071,8.786187 -8.56924,0 -14.75212,-6.074409 -14.75212,-14.31823 0,-11.823375 9.87092,-22.128173 21.2604,-22.128173"
         style="font-family:URW Gothic L;-inkscape-font-specification:URW Gothic L Semi-Bold Oblique"
         id="path3762"
         inkscape:connector-curvature="0" />
      <path
         d="m 255.76113,82.765054 c 1.41012,-3.362611 2.16943,-8.243834 2.16943,-13.450458 0,-14.318215 -10.63022,-24.406073 -25.70774,-24.406073 -20.06719,0 -38.18194,17.680864 -38.18194,37.314174 0,15.077514 11.17257,25.599263 27.22633,25.599263 13.55892,0 25.92468,-7.2676 32.43296,-19.199448 l -15.72836,0 c -4.12191,4.12191 -8.56925,5.965929 -14.64364,5.965929 -8.24382,0 -14.10129,-4.881222 -14.10129,-11.823387 l 46.53425,0 M 211.17937,69.965425 c 2.82025,-7.050637 10.41326,-11.823387 18.76555,-11.823387 9.22007,0 14.10129,4.013451 14.53518,11.823387 l -33.30073,0"
         style="font-family:URW Gothic L;-inkscape-font-specification:URW Gothic L Semi-Bold Oblique"
         id="path3764"
         inkscape:connector-curvature="0" />
      <path
         d="m 261.14402,106.41183 14.4267,0 5.20663,-28.311048 c 1.41012,-7.809935 2.82026,-11.606446 5.09815,-14.426701 3.14567,-3.688025 7.05065,-5.532043 11.49798,-5.532043 5.96592,0 9.1116,3.037206 9.1116,8.894658 0,3.145668 -0.32542,6.399818 -0.97625,9.979372 l -5.42357,29.395762 14.4267,0 5.96593,-32.216019 c 0.86777,-4.772739 1.30166,-8.460775 1.30166,-11.497972 0,-11.497961 -6.94218,-17.789316 -19.30792,-17.789316 -6.61675,0 -11.28103,1.84402 -17.89778,7.159115 l 1.08471,-5.748986 -13.34198,0 -11.17256,60.093178"
         style="font-family:URW Gothic L;-inkscape-font-specification:URW Gothic L Semi-Bold Oblique"
         id="path3766"
         inkscape:connector-curvature="0" />
      <path
         d="m 401.68063,26.251436 -14.4267,0 -4.66427,25.382316 c -3.25414,-4.664267 -9.76244,-7.484529 -17.13849,-7.484529 -19.52483,0 -36.88028,18.006279 -36.88028,38.398888 0,15.185986 9.97938,25.273849 24.94843,25.273849 8.02687,0 14.86059,-2.92874 21.58581,-9.220076 l -1.5186,7.809946 13.23352,0 14.86058,-80.160394 m -36.55487,31.131302 c 8.67771,0 14.4267,5.965938 14.4267,14.969058 0,11.606432 -10.08785,22.236645 -21.15193,22.236645 -8.89465,0 -14.96906,-6.182881 -14.96906,-15.07753 0,-11.931846 9.97939,-22.128173 21.69429,-22.128173"
         style="font-family:URW Gothic L;-inkscape-font-specification:URW Gothic L Semi-Bold Oblique"
         id="path3768"
         inkscape:connector-curvature="0" />
      <path
         d="m 397.79261,106.41183 14.4267,0 11.17256,-60.093178 -14.4267,0 -11.17256,60.093178 m 12.36574,-66.601464 14.4267,0 2.49485,-13.55893 -14.42671,0 -2.49484,13.55893"
         style="font-family:URW Gothic L;-inkscape-font-specification:URW Gothic L Semi-Bold Oblique"
         id="path3770"
         inkscape:connector-curvature="0" />
      <path
         d="m 423.85117,106.41183 14.4267,0 5.20663,-28.311048 c 1.41013,-7.809935 2.82026,-11.606446 5.09816,-14.426701 3.14567,-3.688025 7.05065,-5.532043 11.49797,-5.532043 5.96592,0 9.1116,3.037206 9.1116,8.894658 0,3.145668 -0.32541,6.399818 -0.97624,9.979372 l -5.42357,29.395762 14.4267,0 5.96593,-32.216019 c 0.86777,-4.772739 1.30165,-8.460775 1.30165,-11.497972 0,-11.497961 -6.94218,-17.789316 -19.30791,-17.789316 -6.61675,0 -11.28104,1.84402 -17.89779,7.159115 l 1.08472,-5.748986 -13.34199,0 -11.17256,60.093178"
         style="font-family:URW Gothic L;-inkscape-font-specification:URW Gothic L Semi-Bold Oblique"
         id="path3772"
         inkscape:connector-curvature="0" />
      <path
         d="m 546.70694,46.318652 -1.41013,7.593 c -4.12191,-6.399808 -9.32855,-9.003129 -17.68084,-9.003129 -19.74178,0 -36.33793,17.35545 -36.33793,37.965003 0,15.185985 9.5455,24.948434 24.40607,24.948434 8.46077,0 14.42671,-2.60333 21.36888,-9.328548 -1.41013,5.640508 -2.38638,8.135358 -4.33886,10.955618 -3.68803,5.42356 -9.22008,8.24383 -16.05377,8.24383 -6.8337,0 -10.73868,-1.84402 -13.99282,-6.39982 l -16.37919,0 c 3.47109,12.69115 12.5827,19.09097 27.33481,19.09097 11.06407,0 20.06722,-3.68803 27.11785,-10.95561 5.42357,-5.64051 8.67772,-13.01658 10.73868,-24.406074 l 9.00313,-48.703674 -13.77588,0 M 526.7482,58.142038 c 8.56923,0 14.20976,5.640523 14.20976,14.101287 0,4.555796 -1.84402,10.196319 -4.5558,14.101287 -3.68803,5.206623 -9.65397,8.243829 -16.37919,8.243829 -8.67771,0 -13.88434,-5.098166 -13.88434,-13.450458 0,-13.341974 8.67772,-22.995945 20.60957,-22.995945"
         style="font-family:URW Gothic L;-inkscape-font-specification:URW Gothic L Semi-Bold Oblique"
         id="path3774"
         inkscape:connector-curvature="0" />
      <path
         d="m 560.17435,87.320854 c -0.10847,1.62707 -0.21695,3.037202 -0.21695,4.230386 0,9.65395 7.48454,16.27072 18.33168,16.27072 13.55891,0 25.70773,-11.389518 25.70773,-24.080663 0,-7.159108 -3.36263,-10.630204 -13.6674,-13.992815 -5.42357,-1.735541 -5.42358,-1.735544 -6.72523,-2.494843 -1.30166,-0.759299 -2.16943,-1.952487 -2.16943,-3.145672 0,-3.145668 2.92873,-5.965929 6.29134,-5.965929 3.0372,0 4.66427,1.627075 4.77274,4.772743 l 14.10129,0 c 0.21694,-1.627069 0.32542,-3.037201 0.32542,-4.121914 0,-7.484522 -7.59301,-13.884344 -16.48766,-13.884344 -12.90809,0 -23.86372,9.870912 -23.86372,21.368873 0,7.592993 3.14568,11.06409 13.6674,14.752115 7.37605,2.603312 8.89466,3.796503 8.89466,6.616758 0,3.796496 -3.57956,6.942172 -7.70147,6.942172 -4.23038,0 -6.61676,-2.494848 -6.72523,-7.267587 l -14.53517,0"
         style="font-family:URW Gothic L;-inkscape-font-specification:URW Gothic L Semi-Bold Oblique"
         id="path3776"
         inkscape:connector-curvature="0" />
    </g>
    <rect
       style="fill:#000000;fill-opacity:1;fill-rule:nonzero;stroke:none"
       id="rect3797"
       width="13.753359"
       height="27.506718"
       x="102.93131"
       y="-27.921045"
       ry="0.88377202"
       transform="matrix(0.9371238,0.34899711,-0.34899711,0.9371238,0,0)" />
    <rect
       transform="matrix(0.92346023,0.38369414,-0.38369414,0.92346023,0,0)"
       ry="0.88377202"
       y="56.627178"
       x="107.33571"
       height="27.506718"
       width="13.753359"
       id="rect3801"
       style="fill:#000000;fill-opacity:1;fill-rule:nonzero;stroke:none" />
  </g>
</svg>
